<svg width="35" height="36" viewBox="0 0 35 36" fill="none" xmlns="http://www.w3.org/2000/svg">
<g clip-path="url(#clip0_299_4904)">
<path d="M5.2557 10.9958L15.6653 6.46185C15.8371 6.38823 16.0218 6.34974 16.2087 6.34866C16.3956 6.34757 16.5808 6.38392 16.7534 6.45554C16.926 6.52717 17.0825 6.63263 17.2137 6.76571C17.345 6.89879 17.4482 7.05678 17.5174 7.23039L24.6982 24.5875C24.8459 24.9396 24.8502 25.3355 24.7102 25.6908C24.5701 26.046 24.2969 26.3325 23.9486 26.4891L13.5405 31.0231C13.3686 31.097 13.1837 31.1356 12.9967 31.1368C12.8097 31.138 12.6243 31.1017 12.4515 31.0301C12.2787 30.9584 12.122 30.8529 11.9907 30.7197C11.8594 30.5865 11.7561 30.4283 11.6869 30.2546L4.50612 12.896C4.35879 12.5438 4.35469 12.1481 4.49468 11.7929C4.63467 11.4378 4.9077 11.1527 5.2557 10.9958Z" fill="#4156FF"/>
<path d="M21.875 6.33301H23.3333C23.7201 6.33301 24.091 6.48665 24.3645 6.76014C24.638 7.03363 24.7917 7.40457 24.7917 7.79134V12.8955" stroke="#7685FC" stroke-width="3" stroke-linecap="round" stroke-linejoin="round"/>
<path d="M29.1673 9.25C29.5523 9.41333 29.9257 9.56646 30.2873 9.70938C30.6433 9.86044 30.9247 10.1467 31.0697 10.5053C31.2146 10.8638 31.2112 11.2652 31.0602 11.6212L27.709 19.4583" stroke="#7685FC" stroke-width="3" stroke-linecap="round" stroke-linejoin="round"/>
</g>
<defs>
<clipPath id="clip0_299_4904">
<rect width="35" height="35" fill="white" transform="translate(0 0.5)"/>
</clipPath>
</defs>
</svg>
