<svg width="21" height="20" viewBox="0 0 21 20" fill="none" xmlns="http://www.w3.org/2000/svg">
<path fill-rule="evenodd" clip-rule="evenodd" d="M20.1875 10.2273C20.1875 9.51819 20.1226 8.83637 20.002 8.18182H10.3916V12.05H15.8833C15.6467 13.3 14.9278 14.3591 13.8471 15.0682V17.5773H17.1449C19.0744 15.8364 20.1875 13.2727 20.1875 10.2273Z" fill="#3A7CEA"/>
<path fill-rule="evenodd" clip-rule="evenodd" d="M10.3912 20C13.1463 20 15.4562 19.1045 17.1445 17.5772L13.8467 15.0682C12.933 15.6682 11.7641 16.0227 10.3912 16.0227C7.73351 16.0227 5.48397 14.2636 4.68156 11.9H1.27246V14.4909C2.9515 17.7591 6.40234 20 10.3912 20Z" fill="#2CA24E"/>
<path fill-rule="evenodd" clip-rule="evenodd" d="M4.68194 11.9C4.47786 11.3 4.3619 10.659 4.3619 9.99995C4.3619 9.34086 4.47786 8.69995 4.68194 8.09995V5.50903H1.27284C0.581749 6.85904 0.1875 8.38631 0.1875 9.99995C0.1875 11.6136 0.581749 13.1409 1.27284 14.4909L4.68194 11.9Z" fill="#F1B500"/>
<path fill-rule="evenodd" clip-rule="evenodd" d="M10.3912 3.97728C11.8894 3.97728 13.2344 4.48183 14.292 5.47274L17.2187 2.60455C15.4515 0.990911 13.1417 0 10.3912 0C6.40234 0 2.9515 2.24091 1.27246 5.5091L4.68156 8.10002C5.48397 5.73638 7.73351 3.97728 10.3912 3.97728Z" fill="#E33E2B"/>
</svg>
