<svg width="35" height="36" viewBox="0 0 35 36" fill="none" xmlns="http://www.w3.org/2000/svg">
<path d="M5.83268 10.173C6.03685 10.0914 6.28185 10.001 6.56622 9.90909C7.97994 9.46335 9.45455 9.24095 10.9368 9.24992C12.4191 9.24095 13.8938 9.46335 15.3075 9.90909C15.5918 10.001 15.8368 10.0914 16.041 10.173V26.0397C14.3868 25.5357 12.6661 25.2835 10.9368 25.2916C8.80768 25.2916 7.07372 25.6533 5.83268 26.0397V10.173ZM17.4993 7.62388C17.0764 7.43801 16.6441 7.27397 16.2043 7.13242C14.5008 6.59347 12.7236 6.32383 10.9368 6.33325C8.71143 6.33325 6.91914 6.72846 5.66935 7.13242C5.17176 7.29192 4.68428 7.48137 4.20956 7.69971C4.0331 7.78131 3.85946 7.86886 3.68893 7.96221L3.65247 7.98263L3.63935 7.98992L3.63497 7.99284C3.63206 7.99575 3.27331 8.20721 3.6306 7.99575C3.4129 8.12483 3.23254 8.30833 3.10726 8.52823C2.98197 8.74812 2.91606 8.99684 2.91602 9.24992V28.2083C2.91606 28.4657 2.98423 28.7185 3.11361 28.941C3.24298 29.1635 3.42895 29.3478 3.65262 29.4752C3.87629 29.6026 4.12969 29.6685 4.38708 29.6663C4.64448 29.664 4.89669 29.5937 5.1181 29.4624L5.11081 29.4668L5.11518 29.4653L5.11664 29.4639L5.1706 29.4347C5.22456 29.4055 5.31352 29.3618 5.43602 29.3035C5.68393 29.1897 6.0631 29.0293 6.56622 28.866C7.98002 28.4207 9.45463 28.1988 10.9368 28.2083C12.4191 28.1988 13.8937 28.4207 15.3075 28.866C15.6927 28.989 16.0701 29.1351 16.4377 29.3035C16.5478 29.3545 16.6562 29.409 16.7629 29.4668M16.7629 29.4668L16.7585 29.4653L16.7571 29.4639C17.215 29.7337 17.7837 29.7337 18.2416 29.4639L18.2956 29.4347C18.3496 29.4055 18.4385 29.3618 18.561 29.3035C18.9286 29.1351 19.306 28.989 19.6912 28.866C21.105 28.4207 22.5796 28.1988 24.0618 28.2083C25.5441 28.1988 27.0187 28.4207 28.4325 28.866C28.8177 28.989 29.1951 29.1351 29.5627 29.3035C29.6708 29.3536 29.7773 29.4071 29.8821 29.4639C30.1035 29.5948 30.3557 29.6649 30.613 29.6669C30.8703 29.6689 31.1236 29.6028 31.3471 29.4752C31.5706 29.3477 31.7563 29.1633 31.8855 28.9408C32.0147 28.7183 32.0827 28.4656 32.0827 28.2083V9.24992C32.0826 8.99684 32.0167 8.74812 31.8914 8.52823C31.7662 8.30833 31.5858 8.12483 31.3681 7.99575L31.3652 7.9943L31.3593 7.98992L31.3448 7.98263L31.3098 7.96221C31.1392 7.86884 30.9656 7.78129 30.7891 7.69971C30.3149 7.48145 29.8279 7.29201 29.3308 7.13242C27.6268 6.59332 25.8491 6.32368 24.0618 6.33325C21.8379 6.33325 20.0441 6.72846 18.7943 7.13242C18.3544 7.27362 17.9222 7.43766 17.4993 7.62388M29.166 10.173V26.0397C27.5118 25.5357 25.7911 25.2835 24.0618 25.2916C21.9327 25.2916 20.1987 25.6533 18.9577 26.0397V10.173C19.1618 10.0914 19.4068 10.001 19.6912 9.90909C21.1049 9.46335 22.5796 9.24095 24.0618 9.24992C25.5441 9.24095 27.0188 9.46335 28.4325 9.90909C28.7168 10.001 28.9618 10.0914 29.166 10.173ZM29.8806 10.5055L29.8879 10.5085H29.8864L29.8806 10.5055ZM29.8821 29.4639L29.8864 29.4668L29.8835 29.4639" fill="#4156FF"/>
</svg>
