<svg width="35" height="36" viewBox="0 0 35 36" fill="none" xmlns="http://www.w3.org/2000/svg">
<path d="M4.37435 9.25033C3.57227 9.25033 2.91602 9.90658 2.91602 10.7087V29.667C2.91602 31.2712 4.22852 32.5837 5.83268 32.5837H24.791C25.5931 32.5837 26.2493 31.9274 26.2493 31.1253C26.2493 30.3232 25.5931 29.667 24.791 29.667H7.29102C6.48893 29.667 5.83268 29.0107 5.83268 28.2087V10.7087C5.83268 9.90658 5.17643 9.25033 4.37435 9.25033ZM29.166 3.41699H11.666C10.0619 3.41699 8.74935 4.72949 8.74935 6.33366V23.8337C8.74935 25.4378 10.0619 26.7503 11.666 26.7503H29.166C30.7702 26.7503 32.0827 25.4378 32.0827 23.8337V6.33366C32.0827 4.72949 30.7702 3.41699 29.166 3.41699ZM26.2493 16.542H14.5827C13.7806 16.542 13.1243 15.8857 13.1243 15.0837C13.1243 14.2816 13.7806 13.6253 14.5827 13.6253H26.2493C27.0514 13.6253 27.7077 14.2816 27.7077 15.0837C27.7077 15.8857 27.0514 16.542 26.2493 16.542ZM20.416 22.3753H14.5827C13.7806 22.3753 13.1243 21.7191 13.1243 20.917C13.1243 20.1149 13.7806 19.4587 14.5827 19.4587H20.416C21.2181 19.4587 21.8743 20.1149 21.8743 20.917C21.8743 21.7191 21.2181 22.3753 20.416 22.3753ZM26.2493 10.7087H14.5827C13.7806 10.7087 13.1243 10.0524 13.1243 9.25033C13.1243 8.44824 13.7806 7.79199 14.5827 7.79199H26.2493C27.0514 7.79199 27.7077 8.44824 27.7077 9.25033C27.7077 10.0524 27.0514 10.7087 26.2493 10.7087Z" fill="#4156FF"/>
</svg>
